<?xml version="1.0" encoding="UTF-8"?>
<svg id="Capa_2" data-name="Capa 2" xmlns="http://www.w3.org/2000/svg" viewBox="0 0 512 512">
  <defs>
    <style>
      .cls-1 {
        fill: #ffec00;
      }

      .cls-1, .cls-2, .cls-3, .cls-4, .cls-5 {
        fill-rule: evenodd;
      }

      .cls-2 {
        fill: #c10d19;
      }

      .cls-3 {
        fill: #289448;
      }

      .cls-4 {
        fill: #386db2;
      }

      .cls-6 {
        fill: none;
      }

      .cls-5 {
        fill: #d57c1b;
      }
    </style>
  </defs>
  <g id="Capa_1-2" data-name="Capa 1">
    <g>
      <rect class="cls-6" width="512" height="512"/>
      <g>
        <path class="cls-4" d="M124.81,73.55h20.13v66.43h-20.13V73.55h0Zm120.46-.07h28.6V363.13h-28.6V73.48h0Zm14.3,73.3c-4.67,0-8.46,3.79-8.46,8.46s3.79,8.46,8.46,8.46,8.45-3.79,8.45-8.46-3.79-8.46-8.45-8.46h0Zm0,35.59c-4.67,0-8.46,3.79-8.46,8.46s3.79,8.46,8.46,8.46,8.45-3.79,8.45-8.46-3.79-8.46-8.45-8.46h0Zm0,35.59c-4.67,0-8.46,3.79-8.46,8.46s3.79,8.46,8.46,8.46,8.45-3.79,8.45-8.46-3.79-8.46-8.45-8.46h0Zm.08,36.99c-4.67,0-8.46,3.79-8.46,8.46s3.79,8.46,8.46,8.46,8.46-3.79,8.46-8.46-3.79-8.46-8.46-8.46h0Zm-.08,34.18c-4.67,0-8.46,3.79-8.46,8.46s3.79,8.46,8.46,8.46,8.45-3.79,8.45-8.46-3.79-8.46-8.45-8.46h0Zm-39.29-215.59h20.12v214.71h-20.12V73.54h0Zm-23.63,0h20.13V235.89h-20.13V73.54h0Zm-23.95,0h20.13v116.6h-20.13V73.54h0Zm-23.95,0h20.13v90.49h-20.13V73.55h0Zm110.69,250.95c-4.67,0-8.46,3.79-8.46,8.46s3.79,8.46,8.46,8.46,8.46-3.79,8.46-8.46-3.79-8.46-8.46-8.46Z"/>
        <path class="cls-3" d="M273.87,87.87c12.95,18.94,41.71,64.12,45.81,87.36,8.41,31.83,19.21,59.75,23.72,77.5l-69.53,46.35V87.87h0Zm70.36,168.31l-70.36,46.9v5.48l71.27-47.51c-.22-1.5-.53-3.12-.91-4.87h0Zm1.28,8.63l-71.64,47.76v6.09c23.37-16.29,45.31-30.28,69.09-47.22,.39-.25,1.59-.63,1.57-.74,.79-1.37,1.09-3.35,.99-5.88h0ZM239.79,58.58s-.42-2.09-.12-7.23c4.51,1.32,10.91,2.52,18.86,2.59,10.39,.08,18.39-2.36,22.82-4.15,.78,5.85,.1,9.2,.1,9.2,0,0-22.32,6.95-41.66-.41h0Zm44.38,2.07c-40.95,10.88-48.67-8.41-58.21,0-1.12,1.46-1.17,5.7,.36,7.39,2.83,3.12,11.89,2.63,33.49,3.56,22.08-.16,31.1-.81,34.03-4.05,1.52-1.67,1.11-4.55,.41-6.23-3.68-3.78-10.08-.67-10.08-.67h0Zm-44.07-13c2,1.69,6.8,3.83,18.33,3.83s18.26-2.53,22.38-4.66c-1.81-7.64-7.08-15.61-21.23-15.61-13.51,.53-18.12,8.81-19.47,16.44Z"/>
        <path class="cls-3" d="M125.88,332.03c3.89,18.02,7.78,36.04,11.67,54.07,0,0,332.25,23.95,351.85-138.13h-10.74c-23.49,86.12-171.68,94.99-286.99,89.06l-9.34-74.36,25.56-91.75-5.72-.84-20.44,75.19-4.18-38.66-5.56,.56,4.95,52.78-16.01,49.09-28.97-136.99-6.12,.56,26.14,121.3L82.98,104.93l-5.31,.05,84.24,230.19c-12.74-.95-24.84-2.02-36.03-3.12h0Zm58.29,4.6h0c-4.91-.28-9.75-.59-14.51-.92l-4.43-18.65,13.73-39.55,5.21,59.12Z"/>
        <path class="cls-4" d="M116.98,395.58c6.11,28.16,12.23,56.33,18.34,84.5,0,0,367.42,25.86,376.42-232.1h-10.67c-21.41,135.53-228.3,154.66-384.09,147.6Z"/>
        <path class="cls-1" d="M457.38,270.81c-2.55-24.84-20.8-132.32-146.01-144.1-67.52-4.93-85.81,19.8-134.48,21.28-49.33-.46-59.81-12.49-85.04-18.76l5.94,16.28c22.99,6.05,37.19,14.91,68.21,16.7,72.2-.24,72.62-27.73,142.4-16.45,9.57,14.59,37.3,86.81,35.4,125.05h113.57ZM86.08,127.96l5.9,16.13c-7-1.57-14.88-2.85-24.23-3.61-23.15-1.37-52.36,10.22-55.45,11.48L.26,139.73c4.79-2.38,31.91-14.92,69.01-13.85,6.4,.41,11.9,1.13,16.82,2.08Z"/>
        <path class="cls-5" d="M430.16,271.08c.06-6.73-.71-115.9-117.48-120.65-67.52-5.13-85.81,20.6-134.48,22.14-43.58-.42-56.84-10.24-76.73-17.02l6.22,17.01c6.83,2.22,13.09,4.61,19.65,6.82l-1.46-6.76,6.12-.56,2,9.45c9.31,2.79,19.7,5.03,33.33,5.85,11.8-.11,21.89-.82,30.69-1.9l4.17-15.36,5.71,.84-3.81,13.68c34.63-5.28,48.36-16.39,73.15-17.35,5.86,.36,38.62-1.09,41.69,8.35l2.6,7.97c5.03,20.64,23.59,71.3,25.78,87.5h82.85ZM95.5,153.68l6.24,17.04c-9.05-2.63-19.37-4.85-32.67-5.97-23.08-1.42-52.18,10.56-55.42,11.93l-12.05-12.72c4.86-2.51,31.95-15.51,68.98-14.39,10.15,.67,18.06,2.18,24.92,4.12Z"/>
        <path class="cls-2" d="M406.49,271.08c-3.46-17.63-21.78-86.95-84.95-87.5,7.32,27.06,18.25,70.05,22.64,87.5h62.32Z"/>
      </g>
    </g>
  </g>
</svg>